<svg width="953" height="1000" xmlns="http://www.w3.org/2000/svg" preserveAspectRatio="xMidYMid meet" version="1.0">

 <g>
  <title>Layer 1</title>
  <g id="svg_1" fill="#ffffff" transform="translate(0 1000) scale(0.1 -0.1)">
   <path id="svg_2" d="m5656,9933c-9,-71 -41,-160 -72,-200c-33,-44 -73,-63 -131,-63c-108,0 -463,-106 -574,-171c-137,-81 -323,-133 -529,-149c-149,-12 -328,-45 -483,-91c-83,-25 -112,-39 -163,-80c-130,-103 -182,-211 -140,-288c13,-23 13,-22 44,33c75,133 266,224 570,272c105,17 261,21 502,14c87,-3 131,1 180,14c60,17 169,65 196,87c41,33 312,51 440,28c100,-17 93,-7 77,-112c-21,-145 -50,-230 -65,-187c-2,7 -41,3 -112,-10c-480,-93 -910,-390 -1156,-800c-67,-111 -111,-294 -126,-525c-11,-176 28,-390 95,-523c37,-73 117,-182 134,-182c7,0 67,43 132,95c236,188 457,337 632,426c154,79 316,123 372,102l23,-9l0,-296c0,-270 -2,-300 -19,-340c-11,-23 -27,-49 -37,-57c-10,-8 -58,-17 -119,-22c-511,-43 -1118,-288 -1392,-564c-425,-427 -609,-1273 -459,-2105c56,-312 187,-697 339,-1001c37,-73 146,-263 183,-317c7,-10 43,10 148,81c405,275 797,437 1097,454l107,6l0,-160c0,-171 -21,-681 -45,-1088c-8,-137 -15,-253 -15,-257c0,-5 -99,-8 -221,-8l-220,0l-1187,687c-653,377 -1188,687 -1190,688c-4,3 -2,808 1,812c6,5 184,-29 302,-58c168,-42 428,-128 619,-205c14,-5 6,11 -26,57c-306,431 -318,1177 -32,2097c25,81 52,162 60,180c8,19 14,40 14,46c0,15 -80,41 -175,57c-100,17 -414,14 -579,-6c-76,-9 -140,-15 -142,-13c-2,2 -6,82 -10,177c-7,162 -6,175 11,187c25,19 95,17 176,-4l65,-17l-4,165c-7,280 34,416 168,554c39,40 70,80 70,89c0,47 -112,75 -332,84l-158,6l0,459c0,403 -2,459 -15,465c-24,9 -53,-25 -60,-70c-16,-92 -58,-131 -111,-104c-45,23 -187,41 -271,33c-142,-12 -289,-82 -353,-169c-49,-66 -52,-127 -9,-181l21,-27l19,30c51,84 257,138 544,144l120,2l0,-240c0,-278 -9,-331 -70,-383c-32,-29 -40,-31 -113,-31c-159,0 -356,-57 -499,-143c-77,-46 -184,-155 -232,-235c-22,-38 -52,-103 -66,-146c-23,-71 -25,-83 -15,-140c33,-190 127,-348 264,-442l55,-38l76,71c108,101 197,166 292,214c69,34 95,42 158,46l76,5l-3,-201l-3,-202l-27,-26c-23,-24 -37,-28 -130,-36c-190,-16 -406,-64 -667,-149c-187,-61 -282,-104 -364,-163c-158,-112 -280,-296 -336,-507c-63,-237 -53,-420 35,-631c84,-202 314,-478 449,-539c63,-29 128,-24 227,16c153,63 227,78 378,79c122,1 141,-1 195,-24l60,-25l3,-362l2,-362l-162,91c-867,484 -1884,1050 -1891,1051c-4,1 -22,-18 -40,-41c-26,-36 -32,-53 -32,-96c0,-63 29,-107 95,-146c65,-39 91,-62 831,-750l696,-647l18,-84c27,-126 91,-341 123,-412c16,-34 47,-87 70,-117c52,-68 123,-204 152,-290c18,-54 25,-117 40,-375c20,-332 36,-439 95,-644c120,-419 361,-717 655,-815c143,-47 1560,-195 2170,-227c725,-38 1506,48 2295,251c575,148 1199,377 1659,610l150,75l33,95c82,234 179,601 252,952c57,279 74,405 75,563c1,172 -8,200 -74,224c-81,30 -108,103 -75,201c17,47 265,1422 259,1429c-2,2 -264,-145 -581,-326l-578,-331l-7,227c-3,124 -8,357 -10,518l-5,291l23,11c88,40 297,38 479,-4c60,-14 111,-25 112,-25c1,0 -20,44 -47,98c-218,443 -255,910 -105,1356c59,178 153,360 258,502l45,62l-76,11c-273,40 -554,30 -694,-24c-13,-5 -18,-1 -22,17c-3,12 -21,282 -41,598c-20,316 -39,597 -43,623c-7,45 -10,35 -64,-194c-32,-133 -60,-244 -62,-246c-3,-3 -89,61 -193,141c-215,167 -244,181 -372,174c-87,-4 -132,-23 -186,-76c-43,-43 -90,-131 -101,-187l-7,-38l37,28c69,53 169,69 274,44c121,-29 320,-145 476,-279l76,-65l0,-312l0,-311l-92,-53c-229,-130 -414,-266 -577,-424c-295,-286 -471,-595 -553,-975c-20,-93 -22,-133 -22,-345c0,-207 3,-254 22,-343c25,-124 70,-275 80,-270c4,2 54,35 112,74c224,151 521,293 803,383c53,17 99,31 102,31c3,0 5,-274 5,-609l0,-609l-85,-79l-86,-78l-3,-450c-2,-398 -5,-454 -20,-482c-21,-42 -55,-64 -106,-69c-22,-2 -169,-40 -328,-84c-673,-190 -1128,-288 -1469,-316l-82,-6l-5,33c-3,19 -8,346 -11,728l-7,694l65,-7c244,-25 795,-266 1356,-594l44,-26l-38,60c-231,357 -442,789 -561,1150c-183,556 -203,1056 -58,1493c147,442 514,907 964,1217c54,38 99,72 100,75c0,11 -465,38 -1150,68c-250,11 -516,23 -591,27l-136,6l-6,271c-11,427 -10,484 9,491c31,12 154,6 266,-14c92,-16 215,-46 393,-98c14,-4 5,11 -29,49c-215,238 -318,526 -286,796c26,215 130,444 284,623c26,30 43,56 39,57c-4,2 -158,7 -341,11c-182,5 -334,11 -337,14c-3,3 -28,196 -56,429c-27,233 -51,429 -53,434c-1,6 -6,-13 -10,-42z"/>
  </g>
  <text transform="matrix(11.0395 0 0 11.0395 -4743.66 -4891.14)" stroke="null" xml:space="preserve" text-anchor="start" font-family="Noto Sans JP" font-size="24" stroke-width="0" id="svg_4" y="494.77233" x="467.69905" fill="#000000">K</text>
 </g>
</svg>